<svg id="Layer_1" data-name="Layer 1" xmlns="http://www.w3.org/2000/svg" width="740" height="90" viewBox="0 0 740 90"><defs><style>.cls-1{fill:#f2eadf;}</style></defs><path class="cls-1" d="M6.31,36.52v-28H23.1V12H10.15v8.4h13V23.8H10.15v9.28h13v3.44Z"/><path class="cls-1" d="M54.18,36.52v-10c0-1.92,0-4.08-1-5.52a3.83,3.83,0,0,0-3.44-1.6c-1.92,0-4,1.36-5.52,3.32a22.29,22.29,0,0,1,.24,3.4v10.4H40.86v-10c0-1.92,0-4.24-1.07-5.72a3.52,3.52,0,0,0-3.08-1.4c-2,0-4.2,1.84-5.52,3.68V36.52H27.55v-20h3.64v3A8.06,8.06,0,0,1,37.47,16,6.23,6.23,0,0,1,43,18.8a5.07,5.07,0,0,1,.48.92,8.36,8.36,0,0,1,7-3.68c2.68,0,4.4.88,5.52,2.36,1.4,1.84,1.84,4.64,1.84,7.72v10.4Z"/><path class="cls-1" d="M89.42,36.52v-10c0-1.92,0-4.08-1-5.52A3.83,3.83,0,0,0,85,19.4c-1.92,0-4,1.36-5.52,3.32a22.29,22.29,0,0,1,.24,3.4v10.4H76.1v-10c0-1.92,0-4.24-1.08-5.72a3.5,3.5,0,0,0-3.08-1.4c-2,0-4.19,1.84-5.51,3.68V36.52H62.79v-20h3.64v3A8.06,8.06,0,0,1,72.7,16a6.25,6.25,0,0,1,5.56,2.76,5.07,5.07,0,0,1,.48.92,8.36,8.36,0,0,1,7-3.68c2.68,0,4.4.88,5.52,2.36,1.4,1.84,1.84,4.64,1.84,7.72v10.4Z"/><path class="cls-1" d="M109.9,36.52V34.4a7.3,7.3,0,0,1-6,2.6c-3.68,0-7.08-1.8-7.08-6.08,0-5.08,4.52-6.64,8.92-6.64a18.93,18.93,0,0,1,4,.44V24c0-3-1.44-4.8-4.71-4.8A14.11,14.11,0,0,0,98.67,21l-1.08-3A19.53,19.53,0,0,1,105.47,16c5.79,0,7.91,3.16,7.91,8.32V36.52Zm-.16-9.08a16.35,16.35,0,0,0-3.59-.4c-2.48,0-5.76.6-5.76,3.6,0,2.44,1.84,3.32,4,3.32a8.43,8.43,0,0,0,5.39-2.4Z"/><path class="cls-1" d="M135.31,12.6V8.52H139V12.6Zm0,23.92v-20H139v20Z"/><path class="cls-1" d="M20.47,58.44V55h11V65.64A14.46,14.46,0,0,1,20,71c-8.56,0-15-5.8-15-14.48C4.91,48.24,11.67,42,20,42a14.38,14.38,0,0,1,10.83,5l-2.72,2.24A11.07,11.07,0,0,0,20,45.48a10.66,10.66,0,0,0-11,11c0,6.8,4.56,11,11,11a10.94,10.94,0,0,0,7.63-2.92v-6.2Z"/><path class="cls-1" d="M50.35,67.24A7.64,7.64,0,0,1,43.83,71c-2.8,0-4.64-1-5.8-2.52-1.36-1.84-1.8-4.52-1.8-7.56V50.52h3.64v10c0,2,.08,4.08,1,5.52a3.85,3.85,0,0,0,3.48,1.6c2.32,0,4.52-1.6,6-3.84V50.52H54v20H50.35Z"/><path class="cls-1" d="M62.83,70.52H59.19v-30h3.64Z"/><path class="cls-1" d="M66.35,60.52c0-5.32,4-10.48,10.08-10.48a9,9,0,0,1,6.27,2.68V40.52h3.64v30H82.7V67.84A7.65,7.65,0,0,1,76.34,71C70.59,71,66.35,66.36,66.35,60.52ZM82.7,63.88V56.44a7.4,7.4,0,0,0-5.79-3c-4.64,0-6.84,3.72-6.84,7.2a6.76,6.76,0,0,0,6.76,7A6.59,6.59,0,0,0,82.7,63.88Z"/><path class="cls-1" d="M95.19,40.52V53.2A7.75,7.75,0,0,1,101.54,50c5.76,0,10,4.64,10,10.52A10.21,10.21,0,0,1,101.46,71a8.88,8.88,0,0,1-6.27-2.64v2.16H91.55v-30Zm0,24.08a7.27,7.27,0,0,0,5.79,3c4.64,0,6.84-3.72,6.84-7.16a6.77,6.77,0,0,0-6.76-7.08,6.51,6.51,0,0,0-5.87,3.8Z"/><path class="cls-1" d="M117,61.44c.24,3.44,2.6,6.44,6.44,6.44,2.63,0,4.75-1,5.95-3.24l2.64,1.68c-2,3.2-4.72,4.68-8.76,4.68-6.35,0-9.91-4.64-9.91-10.48S117.75,50,123.3,50a8.94,8.94,0,0,1,9.12,9.32,15.73,15.73,0,0,1-.16,2.08Zm.28-2.92h11.35a5.49,5.49,0,0,0-5.32-5.36C120.11,53.16,118,55.52,117.31,58.52Z"/><path class="cls-1" d="M139.59,53.84c1.19-2.16,3-3.8,5.15-3.8a9.41,9.41,0,0,1,2.16.24l-.68,3.88a4.06,4.06,0,0,0-1.88-.4c-2,0-3.52,1.2-4.75,3.36v13.4H136v-20h3.64Z"/><path class="cls-1" d="M167,69.4a11.44,11.44,0,0,1-1,5.24c-1.8,3.48-5.28,4.76-9,4.76a15.4,15.4,0,0,1-8.83-2.64l1.4-3.12a13.83,13.83,0,0,0,7.35,2.4c3.44,0,6.52-1.64,6.52-5.92V67.36a7.74,7.74,0,0,1-6.4,3.16A9.92,9.92,0,0,1,147,60.28,10.06,10.06,0,0,1,157.1,50a9,9,0,0,1,6.28,2.68v-2.2H167Zm-3.64-13a7.4,7.4,0,0,0-5.8-3c-4.64,0-6.83,3.56-6.83,7a6.66,6.66,0,0,0,12.63,3.08Z"/><path class="cls-1" d="M181.74,54.56a6.76,6.76,0,0,0-4-1.48c-1.84,0-3,1.08-3,2.64s1.92,2.28,3.84,3c2.6,1,5.84,2.48,5.84,6,0,4.48-3.48,6.28-7.24,6.28a8.57,8.57,0,0,1-6.88-3.12l2.56-2A5.91,5.91,0,0,0,177.26,68c2,0,3.6-1,3.6-3.08,0-1.56-1.84-2.28-3.84-3.08-2.64-1-5.72-2.2-5.72-5.8,0-4,3.12-6,6.44-6a9.29,9.29,0,0,1,6.16,2.2Z"/><path class="cls-1" d="M206.82,69.4a11.44,11.44,0,0,1-1,5.24c-1.8,3.48-5.28,4.76-9,4.76a15.38,15.38,0,0,1-8.83-2.64l1.39-3.12a13.9,13.9,0,0,0,7.36,2.4c3.44,0,6.52-1.64,6.52-5.92V67.36a7.74,7.74,0,0,1-6.4,3.16,9.92,9.92,0,0,1-9.95-10.24A10.06,10.06,0,0,1,196.9,50a9,9,0,0,1,6.28,2.68v-2.2h3.64Zm-3.64-13a7.4,7.4,0,0,0-5.8-3c-4.64,0-6.83,3.56-6.83,7a6.62,6.62,0,0,0,6.71,6.8,6.69,6.69,0,0,0,5.92-3.72Z"/><path class="cls-1" d="M223.66,70.52V68.4a7.32,7.32,0,0,1-6,2.6c-3.68,0-7.08-1.8-7.08-6.08,0-5.08,4.52-6.64,8.92-6.64a19,19,0,0,1,4,.44V58c0-3-1.44-4.8-4.72-4.8A14.11,14.11,0,0,0,212.42,55l-1.08-3A19.53,19.53,0,0,1,219.22,50c5.8,0,7.92,3.16,7.92,8.32V70.52Zm-.16-9.08a16.37,16.37,0,0,0-3.6-.4c-2.48,0-5.76.6-5.76,3.6,0,2.44,1.84,3.32,4,3.32a8.45,8.45,0,0,0,5.4-2.4Z"/><path class="cls-1" d="M230.43,60.52c0-5.32,3.95-10.48,10.07-10.48a9,9,0,0,1,6.28,2.68V40.52h3.64v30h-3.64V67.84A7.66,7.66,0,0,1,240.42,71C234.66,71,230.43,66.36,230.43,60.52Zm16.35,3.36V56.44a7.4,7.4,0,0,0-5.8-3c-4.64,0-6.84,3.72-6.84,7.2a6.76,6.76,0,0,0,6.76,7A6.6,6.6,0,0,0,246.78,63.88Z"/><path class="cls-1" d="M257.58,61.44c.24,3.44,2.6,6.44,6.44,6.44,2.64,0,4.76-1,6-3.24l2.64,1.68c-2,3.2-4.72,4.68-8.76,4.68-6.36,0-9.92-4.64-9.92-10.48S258.3,50,263.86,50A8.94,8.94,0,0,1,273,59.36a15.73,15.73,0,0,1-.16,2.08Zm.28-2.92h11.36a5.49,5.49,0,0,0-5.32-5.36C260.66,53.16,258.58,55.52,257.86,58.52Z"/></svg>