<svg id="Layer_1" data-name="Layer 1" xmlns="http://www.w3.org/2000/svg" width="300" height="85" viewBox="0 0 300 85"><defs><style>.cls-1{fill:#f2eadf;}</style></defs><path class="cls-1" d="M5.3,33.7V.6H25.16V4.66H9.84v9.93H25.16v4.07H9.84v11H25.16V33.7Z"/><path class="cls-1" d="M61.91,33.7V21.88c0-2.27,0-4.83-1.14-6.53a4.52,4.52,0,0,0-4.06-1.89c-2.27,0-4.78,1.61-6.53,3.92a26.33,26.33,0,0,1,.28,4V33.7h-4.3V21.88c0-2.27,0-5-1.28-6.77a4.15,4.15,0,0,0-3.64-1.65c-2.41,0-5,2.17-6.52,4.35V33.7H30.41V10.05h4.31v3.6a9.52,9.52,0,0,1,7.42-4.16,7.38,7.38,0,0,1,6.57,3.26,5.7,5.7,0,0,1,.57,1.09,9.88,9.88,0,0,1,8.23-4.35c3.17,0,5.2,1,6.53,2.79,1.65,2.17,2.17,5.48,2.17,9.12V33.7Z"/><path class="cls-1" d="M103.58,48V21.88c0-2.27,0-4.83-1.14-6.53a4.52,4.52,0,0,0-4.06-1.89c-2.27,0-4.78,1.61-6.53,3.92a26.33,26.33,0,0,1,.28,4V33.7h-4.3V21.88c0-2.27,0-5-1.28-6.77a4.15,4.15,0,0,0-3.64-1.65c-2.41,0-5,2.17-6.52,4.35V33.7H72.08V10.05h4.31v3.6a9.52,9.52,0,0,1,7.42-4.16,7.41,7.41,0,0,1,6.58,3.26A6.26,6.26,0,0,1,91,13.84a9.89,9.89,0,0,1,8.23-4.35c3.17,0,5.2,1,6.53,2.79,1.65,2.17,2.17,5.48,2.17,9.12V48Z"/><path class="cls-1" d="M127.8,33.7V31.19a8.65,8.65,0,0,1-7.09,3.08c-4.35,0-8.37-2.13-8.37-7.19,0-6,5.34-7.85,10.54-7.85a22.18,22.18,0,0,1,4.73.52V18.9c0-3.6-1.7-5.68-5.58-5.68a16.7,16.7,0,0,0-7.52,2.08l-1.27-3.59a23.07,23.07,0,0,1,9.31-2.22c6.86,0,9.37,3.73,9.37,9.83V33.7ZM127.61,23a19.81,19.81,0,0,0-4.25-.47c-2.94,0-6.82.71-6.82,4.26,0,2.88,2.18,3.92,4.69,3.92s4.49-1.23,6.38-2.83Z"/><path class="cls-1" d="M149.56,9.49V5h4.3V9.49Zm0,24.21V15.11h4.3V33.7Z"/><path class="cls-1" d="M22,59.62V55.55H35V68.14a17.12,17.12,0,0,1-13.58,6.33c-10.12,0-17.78-6.85-17.78-17.12,0-9.79,8-17.12,17.78-17.12A17,17,0,0,1,34.24,46.1L31,48.75a13,13,0,0,0-9.6-4.45,12.6,12.6,0,0,0-13,13.05c0,8,5.4,13.06,13,13.06a12.93,12.93,0,0,0,9-3.46V59.62Z"/><path class="cls-1" d="M54.51,69.46A9,9,0,0,1,46.8,73.9c-3.31,0-5.49-1.13-6.86-3-1.61-2.18-2.13-5.35-2.13-8.94V49.69h4.31V61.51c0,2.32.09,4.83,1.23,6.53a4.55,4.55,0,0,0,4.11,1.89c2.74,0,5.34-1.89,7-4.54V49.69h4.3V73.34h-4.3Z"/><path class="cls-1" d="M66.21,73.89h-4.3V36h4.3Z"/><path class="cls-1" d="M68.38,61.78c0-6.29,4.68-12.39,11.92-12.39a10.64,10.64,0,0,1,7.42,3.17L87.83,36h4.31L92,73.6H87.72V70.43a9.05,9.05,0,0,1-7.52,3.74C73.39,74.17,68.38,68.69,68.38,61.78Zm19.34,4V57a8.73,8.73,0,0,0-6.85-3.6c-5.49,0-8.09,4.4-8.09,8.51,0,4.36,3.07,8.33,8,8.33A7.8,7.8,0,0,0,87.72,65.75Z"/><path class="cls-1" d="M99.5,36V53.52A9.17,9.17,0,0,1,107,49.79c6.81,0,11.82,5.48,11.82,12.43,0,6.25-4.68,12.35-11.92,12.35a10.55,10.55,0,0,1-7.42-3.12V74H95.19V36Zm0,31a8.61,8.61,0,0,0,6.86,3.59c5.48,0,8.08-4.39,8.08-8.46,0-4.4-3.07-8.37-8-8.37a7.71,7.71,0,0,0-7,4.49Z"/><path class="cls-1" d="M124.24,63.17c.28,4.07,3.07,7.61,7.61,7.61,3.12,0,5.63-1.13,7.05-3.83l3.12,2c-2.37,3.78-5.58,5.53-10.36,5.53-7.52,0-11.73-5.48-11.73-12.39s5.16-12.39,11.73-12.39c6.24,0,10.79,4.68,10.79,11a19.4,19.4,0,0,1-.19,2.46Zm.33-3.45H138a6.49,6.49,0,0,0-6.29-6.34C127.88,53.38,125.42,56.17,124.57,59.72Z"/><path class="cls-1" d="M149.54,54.18c1.42-2.55,3.54-4.49,6.1-4.49a11.65,11.65,0,0,1,2.55.28l-.8,4.59a4.84,4.84,0,0,0-2.23-.47c-2.41,0-4.16,1.42-5.62,4V73.9h-4.31V50.26h4.31Z"/><path class="cls-1" d="M181.84,72.32a13.57,13.57,0,0,1-1.23,6.2c-2.13,4.11-6.24,5.62-10.69,5.62A18.26,18.26,0,0,1,159.47,81l1.65-3.69a16.48,16.48,0,0,0,8.71,2.84c4.06,0,7.7-1.94,7.7-7V69.91A9.11,9.11,0,0,1,170,73.64a11.73,11.73,0,0,1-11.78-12.1,11.9,11.9,0,0,1,11.92-12.11,10.64,10.64,0,0,1,7.42,3.17V50h4.31ZM177.53,57a8.73,8.73,0,0,0-6.85-3.6c-5.49,0-8.09,4.21-8.09,8.23a7.87,7.87,0,0,0,14.94,3.64Z"/><path class="cls-1" d="M196.13,55.13a8,8,0,0,0-4.69-1.75c-2.17,0-3.54,1.28-3.54,3.12s2.27,2.7,4.54,3.6c3.07,1.18,6.9,2.93,6.9,7,0,5.3-4.11,7.43-8.56,7.43a10.14,10.14,0,0,1-8.13-3.69l3-2.41a7,7,0,0,0,5.16,2.5c2.32,0,4.26-1.18,4.26-3.64,0-1.84-2.18-2.69-4.54-3.64-3.13-1.23-6.77-2.6-6.77-6.86,0-4.77,3.69-7,7.62-7a11,11,0,0,1,7.28,2.6Z"/><path class="cls-1" d="M224.48,72.58a13.57,13.57,0,0,1-1.23,6.2c-2.13,4.11-6.25,5.62-10.69,5.62a18.23,18.23,0,0,1-10.45-3.12l1.65-3.69a16.44,16.44,0,0,0,8.7,2.84c4.07,0,7.71-1.94,7.71-7V70.17a9.13,9.13,0,0,1-7.56,3.73,11.73,11.73,0,0,1-11.78-12.1,11.9,11.9,0,0,1,11.92-12.11,10.64,10.64,0,0,1,7.42,3.17v-2.6h4.31Zm-4.31-15.32a8.73,8.73,0,0,0-6.85-3.6c-5.49,0-8.09,4.21-8.09,8.23a7.87,7.87,0,0,0,14.94,3.64Z"/><path class="cls-1" d="M242.1,74.52V72A8.64,8.64,0,0,1,235,75.09c-4.35,0-8.37-2.13-8.37-7.19,0-6,5.34-7.85,10.55-7.85a22.1,22.1,0,0,1,4.72.52v-.85c0-3.6-1.7-5.68-5.58-5.68a16.74,16.74,0,0,0-7.52,2.08l-1.27-3.59a23.12,23.12,0,0,1,9.31-2.22c6.86,0,9.37,3.73,9.37,9.83V74.52Zm-.19-10.74a19.81,19.81,0,0,0-4.25-.47c-2.93,0-6.81.71-6.81,4.26,0,2.88,2.17,3.92,4.68,3.92s4.49-1.23,6.38-2.84Z"/><path class="cls-1" d="M248.58,62.08c0-6.29,4.68-12.39,11.91-12.39a10.65,10.65,0,0,1,7.43,3.17V38.44h4.3V73.9h-4.3V70.74a9.07,9.07,0,0,1-7.52,3.73C253.59,74.47,248.58,69,248.58,62.08Zm19.34,4V57.26a8.76,8.76,0,0,0-6.86-3.6c-5.48,0-8.09,4.4-8.09,8.52,0,4.35,3.08,8.32,8,8.32A7.8,7.8,0,0,0,267.92,66.05Z"/><path class="cls-1" d="M278.15,60.8c.28,4.07,3.08,7.62,7.62,7.62,3.12,0,5.62-1.14,7-3.83l3.12,2c-2.36,3.79-5.58,5.54-10.35,5.54-7.52,0-11.73-5.49-11.73-12.39S279,47.33,285.58,47.33c6.24,0,10.78,4.68,10.78,11a19.26,19.26,0,0,1-.19,2.46Zm.33-3.45h13.43A6.48,6.48,0,0,0,285.62,51C281.79,51,279.33,53.81,278.48,57.35Z"/></svg>