<svg id="Layer_1" data-name="Layer 1" xmlns="http://www.w3.org/2000/svg" width="16" height="16" viewBox="0 0 16 16"><defs><style>.cls-1{fill:#283477;}.cls-2{fill:#f2eadf;}.cls-3{fill:#ea611f;}</style></defs><path class="cls-1" d="M16,16H0V0H16Z"/><path class="cls-2" d="M1.3,11.05V1.37H6.5V2.56h-4V5.47h4V6.65h-4V9.86h4v1.19Z"/><path class="cls-3" d="M5.07,15.72a7.88,7.88,0,0,1-1.25-.12l.09-.5c1.62.28,2,0,2.07-.15s0-.32-.08-.6a1.39,1.39,0,0,1-.06-1.1c.29-.59,1.08-.68,1.77-.75.48-.05,1-.11,1.1-.33s-.15-.43-.35-.69-.63-.79-.48-1.28,1-.8,1.69-1c.43-.11,1-.25,1-.44s-.2-.32-.4-.49-.69-.61-.63-1.08.51-.69.94-.9.76-.37.85-.71a1,1,0,0,0-.23-.74,1.21,1.21,0,0,1-.25-1c.15-.53.78-.58,1.38-.63s1.09-.09,1.34-.41.15-1.15-.37-2.21L13.7.42c.63,1.28.73,2.17.32,2.73a2.25,2.25,0,0,1-1.7.61c-.43,0-.88.07-.94.27s0,.33.2.59a1.39,1.39,0,0,1,.28,1.12c-.14.56-.68.82-1.11,1s-.64.31-.67.51.23.43.47.64.63.55.56,1-.74.67-1.43.83-1.22.3-1.32.63.16.54.39.83.6.75.43,1.18-.84.57-1.51.64-1.21.13-1.38.48a.89.89,0,0,0,.08.7,1.13,1.13,0,0,1,0,1C6.21,15.55,5.77,15.72,5.07,15.72Z"/><path class="cls-3" d="M6.6,16.81a7.88,7.88,0,0,1-1.25-.12l.09-.5c1.63.28,2,0,2.08-.15s0-.32-.09-.6a1.39,1.39,0,0,1-.06-1.1c.29-.59,1.08-.68,1.77-.75.48-.05,1-.11,1.1-.33s-.14-.43-.35-.69a1.48,1.48,0,0,1-.48-1.28c.19-.61,1-.8,1.69-1,.43-.11,1-.25,1.05-.44s-.2-.32-.4-.49-.69-.61-.63-1.08.51-.69.94-.9.77-.37.85-.71A1,1,0,0,0,12.68,6a1.21,1.21,0,0,1-.25-1c.15-.53.78-.58,1.39-.63s1.09-.09,1.33-.41.16-1.15-.37-2.21l.45-.22c.63,1.28.74,2.17.32,2.73a2.24,2.24,0,0,1-1.69.61c-.44,0-.89.07-.95.27s.05.33.2.58a1.43,1.43,0,0,1,.28,1.13c-.14.56-.68.82-1.11,1s-.64.31-.66.51.22.43.46.64.64.55.56,1-.74.67-1.42.83-1.23.3-1.33.63.17.54.4.83.59.75.42,1.18-.84.57-1.51.64-1.21.13-1.38.48c-.1.2,0,.43.08.7a1.16,1.16,0,0,1,0,1C7.74,16.64,7.3,16.81,6.6,16.81Z"/></svg>