<svg id="Layer_1" data-name="Layer 1" xmlns="http://www.w3.org/2000/svg" width="800" height="50" viewBox="0 0 800 50"><defs><style>.cls-1{fill:none;stroke:#f05f1a;stroke-miterlimit:10;stroke-width:3px;}</style></defs><path class="cls-1" d="M4,22.78C12.64,11.84,22.88,1.71,30.4,4.13s6.48,15,14,17.09C54.58,24.05,63,2.6,76.24,4.13,86.58,5.32,87.67,19,98,19.67c11.44.72,11.14-12.61,20.11-11.51,13.82,1.7,8,13.58,22.26,13.53,24.27-.09,22.2-13.7,31.2-16.13,23.88-6.46,21.82,24.75,39.85,21.88C226,25.11,216.54,6,242.48,6.46c9.75.17,11.43,17.69,23.19,18.54C277.73,25.87,280,5.23,293,5.69c29.64,1,8.28,19.31,45.31,19.31,18.43,0,26.7-25.3,37-21.64,11,3.89,9.33,25.17,17.87,26.41,8.11,1.17,11.58-17.73,24.08-19.42,13.52-1.84,22.49,18.5,33.41,15.53,6.83-1.85,5-14.17,10.87-15.53,7.37-1.7,12.68,15.76,22.53,15.53C494.59,25.64,498,5.54,508.16,5.69c7.93.11,8.7,12.37,18.65,14.76,12.46,3,18.72-14.49,34.18-14C576.12,7,577.44,29.85,588.9,30c15.66.22,13.4-23.61,21.81-24.32,7.8-.67,9.83,9.89,19.42,10.87,11.11,1.14,15.53-12.33,25.63-10.87S668.31,21.87,676,21.22c7-.59,7.27-13.11,14.76-14.76C702,4,703.88,29.9,714.21,30c14.95.16,14.94-22.51,23.12-24.32C745,4,753.86,27.33,766.18,29.82,776.8,32,783.48,15.32,790.94,8"/><path class="cls-1" d="M4,36.29C12.64,25.35,22.88,15.22,30.4,17.64s6.48,15,14,17.09C54.58,37.56,63,16.11,76.24,17.64,86.58,18.83,87.67,32.53,98,33.18c11.44.72,11.14-12.61,20.11-11.51,13.82,1.7,8,13.58,22.26,13.53,24.27-.09,22.2-13.7,31.2-16.13,23.88-6.46,21.82,24.75,39.85,21.88,14.55-2.33,5.13-21.42,31.07-21,9.75.17,11.43,17.69,23.19,18.54C277.73,39.38,280,18.74,293,19.19c29.64,1.06,8.28,19.32,45.31,19.32,18.43,0,26.7-25.3,37-21.65,11,3.9,9.33,25.18,17.87,26.42,8.11,1.17,11.58-17.73,24.08-19.42,13.52-1.84,22.49,18.5,33.41,15.53,6.83-1.85,5-14.18,10.87-15.53,7.37-1.7,12.68,15.76,22.53,15.53,10.51-.24,13.91-20.34,24.08-20.2,7.93.12,8.7,12.38,18.65,14.76,12.46,3,18.72-14.48,34.18-14,15.13.49,16.45,23.39,27.91,23.55,15.66.22,13.4-23.61,21.81-24.33,7.8-.66,9.83,9.9,19.42,10.88,11.11,1.14,15.53-12.33,25.63-10.88S668.31,35.38,676,34.73c7-.59,7.27-13.11,14.76-14.76,11.29-2.49,13.16,23.44,23.49,23.55,14.95.16,14.94-22.51,23.12-24.33,7.63-1.69,16.53,21.65,28.85,24.14,10.62,2.15,17.3-14.5,24.76-21.8"/></svg>