<?xml version="1.0" encoding="utf-8"?>
<!-- Generator: Adobe Illustrator 26.0.1, SVG Export Plug-In . SVG Version: 6.00 Build 0)  -->
<svg version="1.1" id="Layer_1" xmlns="http://www.w3.org/2000/svg" xmlns:xlink="http://www.w3.org/1999/xlink" x="0px" y="0px"
	 viewBox="0 0 1920 1080" style="enable-background:new 0 0 1920 1080;" xml:space="preserve">
<style type="text/css">
	.st0{opacity:0.23;}
	.st1{fill:#52B9F8;}
</style>
<g class="st0">
	<path class="st1" d="M254.2,644.9c-1.3-6.4,1.8-12.3,7.3-13.4c3.2-0.7,9.4-0.5,11.3-0.9c11.5-2.3,12.2-10.6,8.7-32.3
		c-4.5-29.2-11.8-69.7-20.2-110.9c-5.6-27.5-12.1-54.4-18.2-77.5c-3.9-14.5-7.7-28.5-19.2-26.2c-4.6,0.9-8.9,3.2-12.1,3.9
		c-6.9,1.4-10.7-3.1-12-9.5c-1.2-6,1.9-11.8,7.4-13c25.2-5.2,50.1-9.3,78.1-15c28.9-5.9,85.1-20.2,111.3-25.6
		c60.5-12.3,102.9,8.1,115.9,71.8c18.6,91.2-19.1,116.5-73.1,140c-56.1,24.3-58.9,27.3-55,46.5c3.6,17.9,9,23,22.3,20.3
		c6-1.2,21.4-7.3,30.1-9c6.9-1.4,11.2,3.5,12.7,10.8c0.9,4.6-1,11.7-7.8,13.1c-16,3.3-62.5,11.8-94.6,18.4
		c-28,5.7-67.2,14.7-80.9,17.5C259.2,655.4,255.4,650.9,254.2,644.9z M370.4,353.4c-27.5,5.6-27.2,25.6,1.6,166.8
		c3.2,15.6,8.5,18.3,19,16.2c31.2-6.4,37.7-46.9,22.8-119.7C403.7,366.6,393.8,348.6,370.4,353.4L370.4,353.4z"/>
	<path class="st1" d="M676.3,634.3c-112.7-14.7-147.3-64-135.6-154c13.8-105.7,62.8-166.8,175.5-152.1s144.5,89.1,131.1,192.1
		C835.9,607.5,789,649,676.3,634.3z M713.5,349.1c-34.8-4.5-49.7,34-63.7,144.5c-8.8,71-3.9,101.9,30.9,106.4
		c35.2,4.6,47.5-24,57.2-94.9C753.2,394.8,748.7,353.7,713.5,349.1L713.5,349.1z"/>
	<path class="st1" d="M1169,536.7c-0.9-14-11.2-26.4-11.7-34.4c-0.4-6.5,2.9-12.4,10.8-12.9c11.2-0.8,15.4,6.5,17.6,38.7
		c3.6,53.2-0.8,84.5-65.2,89.3c-44.3,3-68.6-9.9-71.3-49.1c-0.9-13.5,0.4-29.1-0.7-45.4c-0.9-12.6-7.4-19.7-24.7-18.5
		c-20.5,1.4-31.1,11.9-29.9,29.2c0.8,12.2,3,29.8,4.1,40.1c2.2,18.6,5,25.4,16.6,24.6c2.3-0.2,8.8-1.5,12.5-1.8
		c6.5-0.4,9.7,5,10.1,10.6c0.3,4.7-2,11.4-8.5,11.8c-13.1,0.9-50.9,2.5-77.1,4.3c-27.5,1.9-67.6,5.5-81.2,6.4
		c-6.5,0.4-10.1-4.5-10.6-10.5c-0.4-6.5,3.9-12,9-12.3c3.3-0.2,8.5,0.8,9.9,0.7c11.7-0.8,13.5-8.9,12.9-30.9
		c-1.1-29.5-2.4-70.6-5.3-112.6c-1.9-28-4.7-55.5-7.7-79.2c-1.9-14.9-3.9-29.3-15.5-28.5c-4.2,0.3-7.8,1.9-11.1,2.2
		c-6.5,0.4-10.2-4.5-10.6-11c-0.4-6.1,3.9-11.5,9-11.9c25.2-1.7,50-2.4,78-4.4c32.2-2.2,94.6-9.2,123.5-11.2
		c60.7-4.1,98.2,16.3,101.7,68.1c4.3,63-44.4,78-92.8,89.7c-4.6,0.8-7.3,3.8-7,7c0.2,2.8,3.2,5.4,8.8,5c46.2-3.1,69.2,3.8,77.3,46.8
		c2.2,11.6,8.2,16.8,17,16.2C1165.9,552.4,1169.7,546.5,1169,536.7z M1012.1,344.8c-27.5,1.9-30.9,14.8-24,115.6
		c1.2,18.2,4.3,21.8,11.8,21.2c36.9-2.5,52.5-28,49.3-74.6C1046,360.3,1037.8,343.1,1012.1,344.8L1012.1,344.8z"/>
	<path class="st1" d="M1489.8,356.6c14.2,2.7,14.6,11.3,12.4,22.8c-4.3,17.8-9.4,37.3-13,56.6c-3.7,19.8-4.6,49.6-5.9,57
		c-1.6,8.3-6.4,13.6-13.7,12.2c-32.6-6.1-33.3-51-35.1-97c-0.3-26.2-3.7-38.3-14.8-40.4c-9.7-1.8-15.1,4.3-17.2,15.8
		c-41.5,220.7-36.6,227.8-13.2,232.1c9.2,1.7,15.2,0,21.7,1.2c6,1.1,9.7,6.6,8.3,13.9c-1.2,6.4-4.5,11.5-12.8,10
		c-16.1-3-64.6-13.1-98.7-19.4c-33.6-6.3-82.5-14.6-98.1-17.5c-8.3-1.6-9.5-7.5-8.3-13.9c1.4-7.3,6.8-11.1,12.8-10
		c6.4,1.2,11.4,5,20.7,6.7c23.4,4.4,30.5-0.4,72-221.1c2.2-11.5-0.7-19.2-10.3-21c-11-2.1-18.6,7.9-28.8,31.7
		c-18,42.8-35.3,84.3-67.5,78.2c-7.3-1.4-9.9-8-8.4-16.3c1.4-7.4,11.4-35.5,15.1-55.2c3.6-19.3,6-39.3,8.4-57.4
		c2.2-11.5,5.1-19.5,19.8-16.7c42.5,9,84.8,19.8,128,27.9C1404,344.3,1447.4,349.5,1489.8,356.6z"/>
	<path class="st1" d="M364.6,926.6c-0.3-6.5,3.7-11.4,9.3-11.7c2.8-0.1,8,1,9.4,1c11.7-0.5,13.7-8.6,13.6-30.6
		c-0.4-29-0.8-69.3-2.6-110.9c-1.2-28.5-3.5-57-6-81.2c-1.6-14.9-3.2-29.8-14.9-29.3c-4.2,0.2-7.9,2.2-10.7,2.4
		c-7,0.3-10-4.7-10.3-11.3c-0.3-6.1,3.7-11.4,9.3-11.6c36.9-1.7,72.5-1.4,113.6-3.2c34.1-1.5,116.3-7.1,136.4-8
		c12.6-0.6,16.1,3,16.5,13.3c0.2,3.7-0.5,19.2,0.4,40.3c0.8,18.2,3.6,38.2,3.9,44.3c0.3,7.5-2.3,11.3-10.7,11.7
		c-44.4,2-48.3-85.4-107.6-82.8c-17.3,0.8-18.5,15.3-18.8,30.4c0,30.4,0.1,65.1,1.3,92.7c0.7,15.4,3.1,18.1,13.9,17.6
		c30.8-1.4,38.6-48.1,70.4-49.5c7-0.3,10,2.8,10.2,9.4c0.3,6.1-1.5,28.6-0.5,51c0.8,18.7,4.2,41,4.7,52.3c0.1,5.2-4,9.6-9.2,9.7
		c-0.1,0-0.1,0-0.2,0c-29,1.3-44.1-53.7-74.5-52.4c-8.4,0.4-13.4,3.9-12.9,15.1c0.7,14.5,2.9,32.6,3.5,45.7
		c1.9,21.9,6.9,29.7,22.4,29c6.5-0.3,23.3-2.4,33.1-2.9c5.6-0.2,10.1,5.2,10.3,11.2c0.3,6.1-2.3,10.9-9.3,11.2
		c-17.8,0.8-67.9,0.2-102.9,1.8c-27.6,1.2-67.2,5.8-80.7,6.4C367.9,938.1,364.8,933.1,364.6,926.6z"/>
	<path class="st1" d="M809.5,969.9c-112.3,17.6-159.4-20-173.4-109.7c-16.5-105.4,13.4-177.8,125.7-195.3
		c112.3-17.6,163.8,45,179.8,147.5C955.1,899.3,921.8,952.3,809.5,969.9z M765,685.7c-34.7,5.4-38.2,46.7-20.5,156.6
		c11.5,70.6,24.9,98.8,59.6,93.4c35.1-5.5,38.8-36.4,28.2-107.1C816,718.4,800.1,680.2,765,685.7z"/>
	<path class="st1" d="M1162.6,694.6c-29-5-36.8,15-41.9,36.5c-12.9,52.3-25,131-30.9,175.9c-2.8,21.9,0,30.4,12.9,32.6
		c39.2,6.8,69.3-137.1,115.9-129c7.4,1.2,10.1,5.1,8.8,12c-1.8,10.1-10.7,45.2-16.5,78.8c-5.3,30.4-6.3,53-8.5,65.9
		c-1.1,6.5-8.4,9.9-13,9.1c-27.2-4.7-103.6-18.9-156.6-28c-27.2-4.7-67-10.6-80.4-13c-6.5-1.1-8.6-8.1-7.8-12.7
		c1.1-6.5,6.6-10.7,11.7-9.8c2.8,0.5,7.6,2.7,9.4,3.1c11.5,2,15.2-5.4,19.9-27c10.1-47.6,26-130.8,32.7-189
		c1.6-14.9,3.3-29.8-8.3-31.8c-4.1-0.7-8.5,0-11.3-0.5c-6.5-1.1-8.6-8.1-7.7-13.2c1-6,6.5-10.3,11.6-9.4
		c24.9,4.3,49.2,9.5,76.8,14.2c40.1,6.9,74.8,12,111.2,18.3c6,1,9.4,5.9,8.1,13.3c-0.8,4.6-4.9,11.5-12.2,10.2
		C1181.1,700.2,1173.2,696.4,1162.6,694.6z"/>
	<path class="st1" d="M1392.4,666.9c6.5-0.3,10.1,4.6,10.4,11.2c0.3,5.1-2.7,11.4-9.2,11.7c-3.3,0.2-7.5-1-11.7-0.8
		c-11.7,0.6-11.9,15.1-12.1,30.1c-0.7,23.9,0.3,51.5,1.7,79.5c2.1,42,5.6,83.1,8,112.5c2,21.9,4.8,29.7,16.5,29.2
		c1.9-0.1,6.5-1.2,10.2-1.5c6.5-0.3,10.1,5.1,10.4,10.7c0.3,6.1-2.7,11.4-9.2,11.7c-13.1,0.7-48.2,1-73.4,2.3
		c-28,1.4-68.1,4.9-82.1,5.6c-7,0.4-10.1-4.6-10.4-10.7c-0.3-5.6,2.2-11.4,9.2-11.7c2.8-0.1,8,0.5,9.4,0.5
		c11.7-0.6,13.6-8.6,13.4-30.7c-0.6-29.5-1.2-70.7-3.3-112.2c-1.4-28-3.7-55.6-6.4-79.3c-1.7-14.9-3.4-29.8-15.1-29.2
		c-4.2,0.2-7.9,1.8-10.7,1.9c-7,0.4-10.1-5.6-10.4-10.7c-0.3-6.5,2.2-11.8,9.2-12.2c25.2-1.3,50.5-1.1,79-2.6
		C1343.4,670.8,1367.6,668.2,1392.4,666.9z"/>
	<path class="st1" d="M1554.4,938.9C1441.1,930,1404,882.5,1411.1,792c8.3-106.3,54.2-169.8,167.5-160.9s148.9,81.6,140.8,185.1
		C1712.5,903.9,1667.8,947.8,1554.4,938.9z M1576.9,652.1c-35-2.7-47.9,36.6-56.2,147.6c-5.1,71.4,1.4,101.9,36.4,104.7
		c35.4,2.8,46.2-26.4,52.3-97.7C1619,695.8,1612.4,654.9,1576.9,652.1L1576.9,652.1z"/>
</g>
</svg>
