<?xml version="1.0" encoding="utf-8"?>
<!-- Generator: Adobe Illustrator 26.0.1, SVG Export Plug-In . SVG Version: 6.00 Build 0)  -->
<svg version="1.1" id="Layer_1" xmlns="http://www.w3.org/2000/svg" xmlns:xlink="http://www.w3.org/1999/xlink" x="0px" y="0px"
	 viewBox="0 0 1242 2208" style="enable-background:new 0 0 1242 2208;" xml:space="preserve">
<style type="text/css">
	.st0{opacity:0.23;}
	.st1{fill:#52B9F8;}
</style>
<g class="st0">
	<path class="st1" d="M163.2,746.9c-1.8-7.6,1.6-14.8,8.1-16.4c3.8-0.9,11.3-1,13.5-1.5c13.5-3.3,14.1-13.2,9-39
		c-6.6-34.7-17.1-82.9-28.9-131.9c-7.9-32.6-16.7-64.5-25-91.9c-5.4-17.2-10.4-33.8-24-30.5c-5.4,1.3-10.5,4.2-14.3,5.1
		c-8.1,2-12.9-3.2-14.7-10.8c-1.7-7.1,1.8-14.3,8.3-15.8c29.9-7.2,59.6-13.2,92.8-21.2c34.3-8.3,101-27.8,132-35.2
		c71.8-17.3,123.4,5.4,141.6,81.1c26.1,108.3-18.1,140.3-81.6,170.5c-66.1,31.4-69.3,35-63.8,58c5.1,21.2,11.7,27.1,27.5,23.3
		c7.1-1.7,25.4-9.5,35.7-12c8.1-2,13.5,3.7,15.6,12.4c1.3,5.4-0.7,14-8.8,16c-19.1,4.6-74.3,16.7-112.4,25.9
		c-33.2,8.1-79.8,20.3-96.1,24.3C169.6,759.2,164.9,753.8,163.2,746.9z M289.8,393.3c-32.7,7.8-31.5,31.8,8.8,199.4
		c4.5,18.5,10.9,21.6,23.5,18.5c37-8.9,43.1-57.6,22.3-144.2c-14.1-59.3-26.7-80.5-54.5-73.8L289.8,393.3z"/>
	<path class="st1" d="M687.3,721.5c-134.9-17.4-176.4-76.3-162.6-184.1c16.2-126.7,74.8-199.8,209.7-182.4
		c134.9,17.4,173.2,106.4,157.3,229.7C878.4,689.2,822.3,738.9,687.3,721.5z M731.3,380c-41.6-5.4-59.4,40.9-75.9,173.1
		c-10.4,85-4.4,121.9,37.3,127.3c42.2,5.4,56.8-28.8,68.2-113.7C779,434.8,773.5,385.5,731.3,380L731.3,380z"/>
	<path class="st1" d="M707.5,1009.5c-1.1-16.8-13.3-31.7-13.9-41.2c-0.5-7.8,3.5-14.8,13-15.4c13.5-0.9,18.5,7.8,21,46.3
		c4.2,63.7-1.2,101.1-78.2,106.7c-53.1,3.5-82.1-11.9-85.3-58.9c-1.1-16.2,0.5-34.8-0.8-54.4c-1-15.1-8.9-23.6-29.6-22.2
		c-24.6,1.6-37.2,14.3-35.8,35c1,14.5,3.5,35.7,4.9,47.9c2.7,22.3,6,30.5,19.9,29.6c2.7-0.2,10.6-1.8,15-2.1
		c7.8-0.5,11.6,6,12.1,12.7c0.4,5.6-2.5,13.6-10.3,14.1c-15.6,1-61,2.9-92.2,5c-33,2.2-80.8,6.5-97,7.6c-7.8,0.5-12.1-5.4-12.6-12.6
		c-0.5-7.8,4.7-14.3,10.8-14.7c3.9-0.3,10.2,1,11.8,0.9c14-0.9,16.2-10.6,15.5-36.9c-1.2-35.2-2.7-84.5-6.1-134.7
		c-2.2-33.5-5.4-66.4-9.1-94.8c-2.3-17.8-4.6-35-18.5-34.1c-5,0.4-9.4,2.3-13.3,2.7c-7.8,0.5-12.2-5.4-12.7-13.2
		c-0.5-7.2,4.7-13.8,10.8-14.2c30.2-2,59.8-2.9,93.4-5.1c38.6-2.7,113.2-10.8,147.8-13.2c72.8-4.8,117.5,19.7,121.6,81.7
		c5,75.5-53.3,93.3-111.3,107.3c-5.6,0.9-8.7,4.5-8.4,8.4c0.2,3.3,3.8,6.5,10.5,6c55.3-3.7,82.8,4.6,92.4,56.2
		c2.7,13.9,9.7,20.1,20.3,19.4S708.2,1021.2,707.5,1009.5z M520,779.5c-33,2.2-37,17.6-29,138.3c1.5,21.8,5.1,26,14,25.4
		c44.1-2.9,62.9-33.3,59.3-89.2C560.7,798.2,550.7,777.5,520,779.5z"/>
	<path class="st1" d="M1139,795.5c17.1,2.7,17.8,13,15.7,26.8c-4.4,21.6-9.8,45-13.5,68.2c-3.7,23.8-3.6,59.5-4.9,68.4
		c-1.6,9.9-7.1,16.5-16,15.1c-39.3-6.1-41.7-59.7-45.8-114.7c-1.4-31.4-6-45.7-19.2-47.7c-11.6-1.8-17.9,5.7-20,19.6
		c-41.1,265.6-35,273.9-6.8,278.2c11.1,1.7,18.2-0.6,26,0.6c7.2,1.1,11.9,7.5,10.5,16.4c-1.2,7.7-5,14-15,12.4
		c-19.3-3-77.8-13.2-118.8-19.5c-40.4-6.3-99.2-14.2-118-17.1c-9.9-1.5-11.7-8.6-10.5-16.4c1.3-8.8,7.7-13.5,14.9-12.4
		c7.8,1.2,13.9,5.4,25,7.2c28.2,4.4,36.5-1.7,77.6-267.3c2.2-13.8-1.5-22.9-13.2-24.7c-13.3-2-22,10.2-33.3,39
		c-19.9,51.9-39,102.2-77.8,96.2c-8.8-1.4-12.2-9.3-10.6-19.2c1.4-8.9,12.3-42.8,16-66.6c3.6-23.2,5.6-47.3,7.9-69
		c2.1-13.8,5.4-23.5,23-20.8c51.2,9.1,102.2,20.3,154.2,28.4C1036,784.1,1088,788.9,1139,795.5z"/>
	<path class="st1" d="M231.6,1458.8c1.5-7.7,7.5-12.2,14.1-10.8c3.3,0.7,9,3.5,10.8,3.8c13.7,2.7,18.3-6.1,24.6-31.7
		c7.8-33.8,18.9-80.8,28.5-129.6c6.6-33.5,12.2-67.4,16.2-96.1c2.4-17.8,4.8-35.6-9-38.3c-4.9-1-9.8,0.4-13.1-0.3
		c-8.1-1.6-10.3-8.3-8.8-16c1.4-7.1,7.6-12.2,14.1-10.8c43.4,8.6,84.7,19.1,133,28.6c40.1,8.1,137.2,24.9,160.8,29.6
		c14.8,2.9,17.8,8.1,15.4,20.2c-0.9,4.4-6.1,22.2-11,46.9c-4.3,21.4-6.7,45.5-8.1,52.6c-1.8,8.8-5.9,12.5-15.8,10.6
		c-52.2-10.3-31.8-113.1-101.6-126.9c-20.3-4-25.9,12.6-30.5,29.9c-8.7,35.4-18.4,75.7-24.8,108.1c-3.6,18.1-1.5,22,11.1,24.5
		c36.2,7.2,58.6-44.9,95.9-37.5c8.2,1.6,10.8,6.1,9.2,13.8c-1.4,7.1-9.9,32.9-15.2,59.3c-4.3,22-6.8,48.9-9.4,62
		c-1.3,6.1-7.3,10.1-13.5,8.8c-0.1,0-0.2,0-0.2-0.1c-34-6.8-35.9-75.1-71.6-82.1c-9.9-2-16.7,0.7-19.3,13.9c-3.4,17-6,38.8-9,54.1
		c-4,26-0.4,36.5,17.7,40c7.7,1.5,27.8,3.8,39.3,6.1c6.6,1.3,10.2,8.9,8.8,16c-1.4,7.1-5.8,12-14,10.3c-20.9-4.1-79-19.1-120.2-27.2
		c-32.3-6.4-79.7-12.4-95.6-15.5C232.1,1473.2,230,1466.5,231.6,1458.8z"/>
	<path class="st1" d="M823.7,1515.3c-135.1,15.5-189.6-31.8-202-139.8c-14.5-126.8,24.8-211.9,159.9-227.4s193.6,61.8,207.7,185.3
		C1001.4,1438.1,958.9,1499.9,823.7,1515.3z M784.6,1173.2c-41.7,4.8-47.9,53.9-32.3,186.3c10.3,85,25,119.4,66.7,114.6
		c42.3-4.8,48.2-41.6,39-126.7C844,1214.9,826.8,1168.4,784.6,1173.2L784.6,1173.2z"/>
	<path class="st1" d="M320.9,1543.9c-35.3,0-40.4,25.2-42,51.5c-4.5,64.4-2.7,159.6-0.6,213.9c1.1,26.3,6.2,35.8,21.9,35.8
		c47.6,0,53.7-175.8,110.3-175.8c9,0,12.9,3.9,12.9,12.3c0,12.3-3.4,55.4-3.4,96.3c0,36.9,3.4,63.8,3.4,79.5
		c-0.4,7.2-6.2,13-13.5,13.5c-33,0-126-1.1-190.3-1.1c-33,0-81.2,1.1-97.4,1.1c-7.8,0-11.7-7.8-11.7-13.5c0-7.8,5.6-14,11.7-14
		c3.4,0,9.5,1.7,11.7,1.7c14,0,16.8-9.5,17.9-35.8c2.2-58.2,3.9-159.6,0-229.6c-1.1-17.9-2.2-35.8-16.2-35.8c-5,0-10.1,1.7-13.5,1.7
		c-7.8,0-11.7-7.8-11.7-14c0-7.3,5.6-13.5,11.7-13.5c30.2,0,59.9,1.1,93.5,1.1c48.7,0,90.7-1.1,134.9-1.1c7.3,0,12.3,5,12.3,14
		c0,5.6-3.3,14.6-12.3,14.6C343.9,1546.7,333.8,1543.9,320.9,1543.9z"/>
	<path class="st1" d="M687.4,1557.9c7.8,0,11.7,6.1,11.7,14c0,6.2-3.9,13.5-11.7,13.5c-3.9,0-8.9-1.7-14-1.7
		c-14,0-15.1,17.4-16.2,35.3c-2.2,28.6-2.7,61.6-2.7,95.2c0,50.4,1.7,99.7,2.7,134.9c1.1,26.3,3.9,35.8,17.9,35.8
		c2.2,0,7.8-1.1,12.3-1.1c7.8,0,11.7,6.7,11.7,13.5c0,7.3-3.9,13.5-11.7,13.5c-15.7,0-57.7-1.7-87.9-1.7c-33.6,0-81.7,1.7-98.5,1.7
		c-8.4,0-11.7-6.1-11.7-13.5c0-6.7,3.3-13.5,11.7-13.5c3.4,0,9.5,1.1,11.2,1.1c14,0,16.8-9.5,17.9-35.8c1.1-35.3,2.7-84.5,2.7-134.4
		c0-33.6-1.1-66.6-2.7-95.2c-1.1-17.9-2.2-35.8-16.2-35.8c-5,0-9.5,1.7-12.9,1.7c-8.4,0-11.7-7.3-11.7-13.5c0-7.8,3.3-14,11.7-14
		c30.2,0,60.5,1.7,94.6,1.7C628.7,1559.6,657.8,1557.9,687.4,1557.9z"/>
	<path class="st1" d="M854.2,1914.7c-132.9-28.9-169.2-91.3-146.1-197.4c27.2-124.7,91.8-192.6,224.7-163.7
		c132.9,28.9,163.3,120.9,136.9,242.4C1047.3,1898.9,987.1,1943.6,854.2,1914.7z M927.4,1578.3c-41-8.9-62.8,35.6-90.5,166
		c-17.7,83.8-14.9,121.1,26.1,130c41.6,9,59-23.8,77.8-107.4C970.2,1636.9,969,1587.3,927.4,1578.3z"/>
</g>
</svg>
